<svg fill="none" height="11.267" viewBox="0 0 1034 200" width="100.867" xmlns="http://www.w3.org/2000/svg">
    <path d="M63.88 8.747C65.107 4.24 69.08.28 73.947.28 89.04.227 104.134.2 119.227.32c-7.533 22.294-14.92 44.654-22.267 67.027 25.174-20.32 50.614-40.293 75.84-60.547 4.454-3.653 9.88-6.666 15.814-6.56 20.88.04 41.746-.066 62.626.067-20.493 16.267-40.946 32.56-61.413 48.853-5.867 4.627-11.28 11.107-11.333 18.96-.307 4.934 1.786 9.547 4.146 13.734 14.374 25.92 28.52 51.973 42.947 77.853-15.893.08-31.787.04-47.68.04-8.853.307-17.32-5.093-21.507-12.773-5.213-9.52-9.92-19.307-15.213-28.774-3.373-5.893-8.76-12.373-16.28-11.746-8.44 1.333-15.32 6.893-21.96 11.866C68.92 145.307 34.987 172.414.974 199.414c.36-1.574.72-3.147 1.186-4.68 20.587-62 41.12-124 61.72-185.987M262.867.254c46.547.013 93.093-.067 139.64.04-2.92 11.24-5.947 22.453-8.453 33.8-29.48.253-58.974 0-88.454.12-2.413 10.053-5.28 19.986-7.36 30.106 21.214-1.08 42.507.8 63.707-.6-1.893 10.84-5.293 21.374-7.747 32.107-20.106-.04-40.213.027-60.32-.053-1.733-.12-4.306.026-4.413 2.346-1.533 6.374-3.507 12.667-4.533 19.134-1.014 4.533 3.12 8.773 7.613 8.466 26.053.107 52.12.014 78.187.04-2.814 11.32-5.747 22.6-8.494 33.92-32.96.147-65.933.04-98.893.067-11.667.533-23.093-6.44-28.267-16.84-3.773-6.867-4.186-15.107-2.506-22.627 10.12-40 20.293-80 30.293-120.026m156.427.08c10.68-.187 21.373-.027 32.066-.107 10.974-.387 21.534 6.267 26.827 15.733 13.053 24.827 25.04 50.227 38.413 74.894 7.04-30.32 15.187-60.374 22.6-90.6 10.747-.014 21.494 0 32.24-.027 11.587-.307 22.467 7.227 27.48 17.467 11.827 23.32 23.68 46.64 35.494 69.96.506.72 1.506 2.173 2 2.893 7.36-30.16 15.12-60.213 22.693-90.307 17.093.027 34.187-.013 51.267.014-13.627 53.84-27.24 107.666-40.787 161.52-15.947.506-32.4-3.64-45.053-13.654-9.68-7.36-16.8-17.52-22.374-28.2-9.36-18.2-18.36-36.586-27.866-54.693-8.587 32.08-16.374 64.387-24.587 96.587-16.587.413-33.72-4.067-46.547-14.96-10.306-8.36-17.44-19.88-23.186-31.68-8.6-16.707-16.827-33.6-25.654-50.187-7.866 31.6-16 63.133-23.853 94.747-17.067.013-34.133.04-51.213-.014 13.16-53.186 26.973-106.2 40.04-159.386m308.093.013C773.934.134 820.494.267 867.04.28c-2.853 11.307-5.693 22.627-8.586 33.92-29.467.04-58.934-.133-88.4.094-2.16 9.866-4.8 19.626-7.374 29.4 12.694.8 25.427.333 38.134.493 8.666-.76 17.36.733 26-.467-2.48 10.747-5.307 21.414-8.027 32.094-21.333-.014-42.667.013-64-.014-1.787 6.747-3.64 13.48-5.2 20.28-1.587 4.467 2.227 9.68 6.947 9.614 26.266.2 52.533 0 78.786.08a3018 3018 0 0 1-8.666 34.04c-30.44-.147-60.88-.04-91.32-.054-7.027-.053-14.454.587-20.92-2.733-13.2-5.893-21.08-21.613-17.44-35.68 10.04-40.347 20.48-80.613 30.413-121M884 .214c31.36.08 62.707 0 94.054.04C990.8.587 1003.85 3.12 1014.97 9.6c11.08 6.387 18.98 18.707 18.31 31.72 1.21 25.64-16.96 49-39.84 58.934 9.36 20.52 18.64 41.066 28.16 61.506-10.96 0-21.92.014-32.88.014-7.92-.067-16.253-2.107-22.16-7.654-6.12-5.506-9.466-13.213-12.786-20.56-3.64-7.893-7.2-15.813-10.814-23.706-11.706-.054-23.4.093-35.106-.094-4.32 16.574-8.707 33.134-12.534 49.827-17.226.36-34.466.093-51.693.133C857.24 106.587 870.52 53.374 884 .214m32.267 75.426c11.867-.133 23.76.24 35.627-.2 10.426-.573 22.04-4.666 26.84-14.693 2.706-6.027 5.026-13.88 1.066-19.853-4.24-5.214-11.52-5.987-17.773-6.56-11.747-.307-23.493-.067-35.24-.134-3.573 13.8-6.787 27.694-10.52 41.44"
          fill="#fa4d15"/>
</svg>